# xmcd
#
# Track frame offsets: 
#        150
#        11682
#        27324
#        63111
#        77017
#        92748
#        115071
#        127378
#        141603
#        153915
#        168154
#        179036
#        195211
#        211445
#
# Disc length: 3060 seconds
#
# Revision: 0
# Processed by: cddbd v1.5.2PL0 Copyright (c) Steve Scherf et al.
# Submitted via: ExactAudioCopy v0.95b4
#
DISCID=bf0bf20e
DTITLE=Various Artist - Come Together - A Soul and Jazz Tribute to the Beatles
DYEAR=1900
DGENRE=Soul
TTITLE0=Herbie Mann and Tomiko Jones/Day Tripper
TTITLE1=Little Richard/I Saw Her Standing There
TTITLE2=Clarence Wheeler and the Enforcers/Hey Jude
TTITLE3=Ella Fitzgerald/Got To Get You Into My Life
TTITLE4=Aretha Franklin/Let It Be
TTITLE5=Charles Wright/Here Comes The Sun
TTITLE6=Arif Martin/Glass onion
TTITLE7=The Meters/Come Together
TTITLE8=Carmin McCrae/Carry That Weight
TTITLE9=Black Heat/Drive My Car
TTITLE10=King Curtis/And I Love Her
TTITLE11=Wade Marcus/Something
TTITLE12=Aretha Franklin/A Long and Winding Road
TTITLE13=David Fathead Newman/Yesterday
EXTD=
EXTT0=
EXTT1=
EXTT2=
EXTT3=
EXTT4=
EXTT5=
EXTT6=
EXTT7=
EXTT8=
EXTT9=
EXTT10=
EXTT11=
EXTT12=
EXTT13=
PLAYORDER=
